<svg width="24" height="24" viewBox="0 0 24 24" fill="none" xmlns="http://www.w3.org/2000/svg">
<path class="sunbeam-1" d="M11.9997 18.6666C15.6816 18.6666 18.6663 15.6818 18.6663 11.9999C18.6663 8.31802 15.6816 5.33325 11.9997 5.33325C8.31778 5.33325 5.33301 8.31802 5.33301 11.9999C5.33301 15.6818 8.31778 18.6666 11.9997 18.6666Z" fill="black"/>
<path class="sunbeam-2" d="M22.1047 13.541C23.1512 13.541 23.9995 12.6927 23.9995 11.6462C23.9995 10.5998 23.1512 9.75146 22.1047 9.75146C21.0583 9.75146 20.21 10.5998 20.21 11.6462C20.21 12.6927 21.0583 13.541 22.1047 13.541Z" fill="black"/>
<path class="sunbeam-3" d="M17.053 22.2927C18.0994 22.2927 18.9477 21.4444 18.9477 20.3979C18.9477 19.3515 18.0994 18.5032 17.053 18.5032C16.0065 18.5032 15.1582 19.3515 15.1582 20.3979C15.1582 21.4444 16.0065 22.2927 17.053 22.2927Z" fill="black"/>
<path class="sunbeam-4" d="M6.94652 22.2927C7.99297 22.2927 8.84128 21.4444 8.84128 20.3979C8.84128 19.3515 7.99297 18.5032 6.94652 18.5032C5.90007 18.5032 5.05176 19.3515 5.05176 20.3979C5.05176 21.4444 5.90007 22.2927 6.94652 22.2927Z" fill="black"/>
<path class="sunbeam-5" d="M1.89476 13.541C2.94121 13.541 3.78952 12.6927 3.78952 11.6462C3.78952 10.5998 2.94121 9.75146 1.89476 9.75146C0.848313 9.75146 0 10.5998 0 11.6462C0 12.6927 0.848313 13.541 1.89476 13.541Z" fill="black"/>
<path class="sunbeam-6" d="M6.94652 4.78952C7.99297 4.78952 8.84128 3.94121 8.84128 2.89476C8.84128 1.84831 7.99297 1 6.94652 1C5.90007 1 5.05176 1.84831 5.05176 2.89476C5.05176 3.94121 5.90007 4.78952 6.94652 4.78952Z" fill="black"/>
<path class="sunbeam-7" d="M17.053 4.78952C18.0994 4.78952 18.9477 3.94121 18.9477 2.89476C18.9477 1.84831 18.0994 1 17.053 1C16.0065 1 15.1582 1.84831 15.1582 2.89476C15.1582 3.94121 16.0065 4.78952 17.053 4.78952Z" fill="black"/>
</svg>
