<svg     viewBox="0 0 600 450" preserveAspectRatio="xMaxYMin meet" fill="none" xmlns="http://www.w3.org/2000/svg">
<g opacity="0.4">
<path opacity="0.4" d="M12.0895 257.023C23.9394 228.168 70.2619 219.396 89.8839 215.703C197.687 195.311 257.706 264.487 313.571 234.631C345.042 217.857 329.576 194.08 378.822 152.836C386.132 146.68 413.063 124.674 477.7 112.362C529.255 102.589 577.501 93.3562 590.043 113.516C603.663 135.446 556.417 162.301 552.031 228.63C548.876 276.415 570.422 308.732 556.648 318.427C540.412 329.816 502.862 290.65 484.163 303.961C473.699 311.425 483.394 327.661 474.853 340.512C451.769 375.061 377.668 352.131 251.166 357.055C146.209 361.134 119.816 379.909 75.4944 357.055C34.4043 335.972 -1.2994 289.726 12.0895 257.023Z" fill="var(--color-text-2)"/>
</g>
<path d="M121.615 253.702H20.9668V263.858H121.615V253.702Z" fill="var(--color-secondary)"/>
<path d="M85.3713 243.467H8.80859V253.625H85.3713V243.467Z" fill="var(--color-secondary)"/>
<path d="M47.0515 263.859H8.80859V274.015H47.0515V263.859Z" fill="var(--color-secondary)"/>
<path d="M81.2925 253.317H7.5V254.086H81.2925V253.317Z" fill="var(--color-primary)"/>
<path d="M49.6668 263.474H27.8906V264.244H49.6668V263.474Z" fill="var(--color-primary)"/>
<path d="M21.3506 253.702H20.5811V263.858H21.3506V253.702Z" fill="var(--color-primary)"/>
<path d="M47.4354 243.467H46.666V253.625H47.4354V243.467Z" fill="var(--color-primary)"/>
<path d="M71.6728 253.702H70.9033V263.858H71.6728V253.702Z" fill="var(--color-primary)"/>
<path d="M29.2762 273.632H7.5V274.401H29.2762V273.632Z" fill="var(--color-primary)"/>
<g opacity="0.4">
<path opacity="0.4" d="M197.15 434.298C278.701 434.298 344.812 429.544 344.812 423.679C344.812 417.815 278.701 413.06 197.15 413.06C115.598 413.06 49.4873 417.815 49.4873 423.679C49.4873 429.544 115.598 434.298 197.15 434.298Z" fill="var(--color-text-2)"/>
</g>
<g opacity="0.4">
<path opacity="0.4" d="M541.182 432.143L540.72 430.681C545.644 429.142 551.108 429.451 556.417 429.835C561.188 430.143 565.728 430.374 569.883 429.451L570.267 430.912C565.881 431.913 561.034 431.682 556.34 431.374C551.184 431.066 545.875 430.759 541.182 432.143Z" fill="var(--color-primary)"/>
</g>
<g opacity="0.4">
<path opacity="0.4" d="M580.35 435.837H552.571V437.376H580.35V435.837Z" fill="var(--color-primary)"/>
</g>
<g opacity="0.4">
<path opacity="0.4" d="M442.153 430.912C420.3 430.912 415.144 428.373 413.221 427.372C408.296 424.987 407.911 423.679 407.758 423.217C407.604 422.833 407.68 422.371 407.835 422.063C408.527 420.832 410.451 420.755 416.299 420.755C417.915 420.755 419.915 420.678 422.147 420.678C425.609 420.601 429.149 420.524 432.612 420.524C435.459 420.524 438.306 420.447 441.153 420.37H441.307C445.77 420.293 449.54 420.217 451.31 422.063C451.849 422.602 452.541 423.833 451.926 424.987C450.772 426.988 446.231 427.065 441.46 426.911C437.152 426.757 430.226 425.757 429.38 424.603C429.226 424.372 429.149 424.141 429.226 423.833C429.38 422.986 429.534 422.294 445.308 422.833L445.231 424.372C438.229 424.141 434.536 424.141 432.612 424.294C434.689 424.756 438.075 425.295 441.615 425.449C448.463 425.68 450.31 424.987 450.694 424.294C450.925 423.91 450.31 423.217 450.31 423.217C449.002 421.832 445.154 421.909 441.384 421.986H441.23C438.383 422.063 435.535 422.063 432.688 422.14C429.226 422.217 425.686 422.217 422.224 422.294C419.915 422.371 417.991 422.371 416.376 422.371C412.606 422.448 409.604 422.448 409.297 422.91C409.297 423.14 410.22 424.294 413.99 426.142C416.145 427.219 422.686 430.45 455.465 429.22C458.466 429.142 465.469 428.835 473.24 426.372C478.242 424.756 480.858 423.602 480.858 422.91C480.704 422.602 479.165 420.986 460.467 419.37C447.616 418.293 434.227 417.908 420.762 418.139V416.6C434.305 416.292 447.694 416.754 460.621 417.831C481.935 419.601 482.243 421.525 482.397 422.679C482.704 424.756 478.78 426.218 473.702 427.834C465.776 430.373 458.62 430.604 455.542 430.758C450.463 430.835 446.001 430.912 442.153 430.912Z" fill="var(--color-primary)"/>
</g>
<g opacity="0.4">
<path opacity="0.4" d="M293.019 404.95C271.165 404.95 266.01 402.411 264.086 401.41C259.161 399.025 258.776 397.717 258.623 397.255C258.469 396.871 258.546 396.409 258.7 396.101C259.392 394.87 261.316 394.793 267.164 394.793C268.78 394.793 270.78 394.716 273.012 394.716C276.475 394.639 280.014 394.562 283.477 394.562C286.324 394.562 289.171 394.485 292.018 394.408H292.172C296.635 394.331 300.405 394.254 302.175 396.101C302.868 396.793 303.406 397.948 302.791 399.025C301.637 401.026 297.097 401.103 292.326 400.948C288.017 400.795 281.091 399.794 280.245 398.64C280.092 398.41 280.014 398.179 280.091 397.871C280.245 397.024 280.399 396.332 296.173 396.871L296.097 398.41C289.094 398.179 285.401 398.179 283.477 398.332C285.555 398.794 288.94 399.333 292.48 399.487C299.328 399.718 301.175 399.025 301.56 398.332C301.791 397.948 301.175 397.255 301.175 397.255C299.867 395.87 296.019 395.947 292.249 396.024H292.095C289.248 396.101 286.401 396.101 283.554 396.178C280.092 396.255 276.552 396.255 273.089 396.332C270.78 396.409 268.856 396.409 267.164 396.409C263.393 396.486 260.393 396.486 260.084 396.947C260.084 397.178 261.008 398.332 264.779 400.179C266.933 401.257 273.551 404.488 306.254 403.257C309.486 403.103 316.257 402.872 324.028 400.41C329.03 398.794 331.647 397.64 331.647 396.947C331.492 396.64 329.953 395.023 311.255 393.408C298.405 392.331 285.016 391.946 271.55 392.176V390.637C285.093 390.33 298.482 390.792 311.409 391.869C332.724 393.639 333.031 395.563 333.185 396.717C333.493 398.794 329.568 400.256 324.49 401.872C316.565 404.411 309.408 404.642 306.33 404.796C301.329 404.873 296.866 404.95 293.019 404.95Z" fill="var(--color-primary)"/>
</g>
<path d="M506.866 265.937H406.758V272.786H506.866V265.937Z" fill="var(--color-secondary)"/>
<path d="M482.549 259.088H431.148V265.937H482.549V259.088Z" fill="var(--color-secondary)"/>
<path d="M442.768 265.552H428.148V266.321H442.768V265.552Z" fill="var(--color-primary)"/>
<path d="M439.691 265.937H438.922V272.786H439.691V265.937Z" fill="var(--color-primary)"/>
<path d="M457.235 259.088H456.466V265.937H457.235V259.088Z" fill="var(--color-primary)"/>
<path d="M473.47 265.937H472.7V272.786H473.47V265.937Z" fill="var(--color-primary)"/>
<path d="M473.625 265.552H466.776V266.321H473.625V265.552Z" fill="var(--color-primary)"/>
<g opacity="0.8">
<path opacity="0.8" d="M114.277 71.105H14.168V77.9535H114.277V71.105Z" fill="var(--color-text-2)"/>
<path opacity="0.8" d="M89.9634 64.2568H38.5625V71.1052H89.9634V64.2568Z" fill="var(--color-text-2)"/>
</g>
<g opacity="0.46">
<g opacity="0.46">
<path opacity="0.5" d="M558.65 127.892H374.745C374.745 107.963 382.824 92.727 395.828 82.4933C408.833 72.1823 426.839 66.9498 446.768 66.9498H457.772L456.309 12.7787L464.004 12.6248L465.466 66.8729H486.627C526.409 66.8729 558.65 88.1108 558.65 127.892Z" fill="var(--color-text-2)"/>
</g>
</g>
<path d="M274.252 152.054C280.244 152.054 285.101 147.196 285.101 141.205C285.101 135.212 280.244 130.355 274.252 130.355C268.259 130.355 263.402 135.212 263.402 141.205C263.402 147.196 268.259 152.054 274.252 152.054Z" fill="var(--color-text-2)"/>
<path d="M206.078 167.751C210.753 167.751 214.542 163.961 214.542 159.287C214.542 154.612 210.753 150.823 206.078 150.823C201.403 150.823 197.613 154.612 197.613 159.287C197.613 163.961 201.403 167.751 206.078 167.751Z" fill="var(--color-secondary)"/>
<path d="M206.076 165.981C201.229 165.981 197.227 161.98 197.227 157.132C197.227 152.284 201.229 148.283 206.076 148.283C210.924 148.283 214.925 152.284 214.925 157.132C214.925 161.98 211 165.981 206.076 165.981ZM206.076 149.129C201.613 149.129 197.996 152.746 197.996 157.209C197.996 161.672 201.613 165.289 206.076 165.289C210.539 165.289 214.156 161.672 214.156 157.209C214.156 152.746 210.539 149.129 206.076 149.129Z" fill="var(--color-primary)"/>
<path d="M202.692 154.748C203.077 156.825 203.616 158.903 203.924 160.98C204 161.288 204.385 161.519 204.616 161.288C205.539 160.673 206.386 159.365 207.156 158.825C208.31 157.902 209.387 156.902 210.541 155.902C210.849 155.594 210.695 155.132 210.234 155.132C208.926 155.055 207.618 154.748 206.386 154.594C205.694 154.439 204.231 154.439 203.308 154.209C202.923 154.132 202.616 154.439 202.692 154.748Z" fill="var(--color-primary)"/>
<path d="M228.702 110.195L228.009 109.502C225.701 107.27 221.622 103.808 220.392 103.808C220.392 103.808 220.392 103.808 220.314 103.808L195.537 105.809C193.229 105.962 190.92 105.193 189.228 103.654C187.535 102.038 186.534 99.8064 186.612 97.4979L186.688 86.1864C186.688 83.8779 187.689 81.6466 189.459 80.1076C191.151 78.5686 193.537 77.7991 195.845 78.0301L220.545 80.4924C224.854 80.8771 228.087 84.4936 228.009 88.8031L227.932 95.7279C227.932 97.9599 228.625 109.194 228.625 109.348L228.702 110.195ZM220.392 102.961C222.084 102.961 226.086 106.501 227.856 108.194C227.702 105.347 227.163 97.4206 227.24 95.4976L227.317 88.5721C227.317 84.6474 224.393 81.4156 220.545 81.0309L195.845 78.5686C193.767 78.3376 191.613 79.0306 190.074 80.4924C188.535 81.8776 187.612 83.9551 187.612 86.0326L187.535 97.3441C187.535 99.4216 188.382 101.499 189.921 102.884C191.459 104.346 193.537 105.039 195.691 104.885L220.468 102.884C220.314 102.961 220.314 102.961 220.392 102.961Z" fill="var(--color-primary)"/>
<path d="M193.151 96.1891H201.769C202.385 96.1891 202.846 95.4968 202.539 94.9583C201.923 93.6503 200.461 91.7266 197.691 91.7266C194.151 91.7266 192.535 93.5731 192.305 95.2658C192.228 95.8043 192.612 96.1891 193.151 96.1891Z" fill="var(--color-primary)"/>
<path d="M197.46 91.8037C198.608 91.8037 199.538 90.8737 199.538 89.7262C199.538 88.5787 198.608 87.6487 197.46 87.6487C196.313 87.6487 195.383 88.5787 195.383 89.7262C195.383 90.8737 196.313 91.8037 197.46 91.8037Z" fill="var(--color-primary)"/>
<path d="M219.389 88.7258H208.001C207.77 88.7258 207.616 88.572 207.616 88.341C207.616 88.1108 207.77 87.9563 208.001 87.9563H219.389C219.62 87.9563 219.774 88.1108 219.774 88.341C219.774 88.572 219.62 88.7258 219.389 88.7258Z" fill="var(--color-primary)"/>
<path d="M219.389 92.0339H208.001C207.77 92.0339 207.616 91.8801 207.616 91.6499C207.616 91.4189 207.77 91.2651 208.001 91.2651H219.389C219.62 91.2651 219.774 91.4189 219.774 91.6499C219.774 91.8801 219.62 92.0339 219.389 92.0339Z" fill="var(--color-primary)"/>
<path d="M219.389 95.3437H208.001C207.77 95.3437 207.616 95.1892 207.616 94.959C207.616 94.728 207.77 94.5742 208.001 94.5742H219.389C219.62 94.5742 219.774 94.728 219.774 94.959C219.774 95.1892 219.62 95.3437 219.389 95.3437Z" fill="var(--color-primary)"/>
<path d="M330.81 66.0267C330.501 66.0267 330.194 65.9498 329.963 65.7189C329.502 65.3342 329.424 64.7956 329.655 64.2569C332.425 57.9472 333.964 53.6381 333.964 52.5609L333.888 45.6356C333.888 41.3265 337.042 37.71 341.352 37.3253C341.582 37.3253 359.819 36.3249 368.591 37.0944C372.054 37.4022 373.669 41.2496 373.208 47.5593C372.592 54.5615 369.514 62.7179 366.513 62.7949C366.436 62.7949 366.436 62.7949 366.36 62.7949L341.582 60.7943C341.274 60.7943 339.658 61.1021 331.502 65.9498C331.271 66.0267 331.041 66.0267 330.81 66.0267ZM359.895 37.5561C351.278 37.5561 341.582 38.0948 341.505 38.0948C337.658 38.4794 334.734 41.7113 334.734 45.6356L334.811 52.5609C334.811 54.1768 332.425 60.0248 330.425 64.5647C330.348 64.7956 330.425 65.0264 330.579 65.1803C330.732 65.3342 330.963 65.4111 331.194 65.2572C337.196 61.7177 340.736 59.9479 341.736 60.0248L366.513 62.0255H366.59C368.898 62.0255 371.976 54.5615 372.515 47.5593C372.746 44.7892 372.823 38.2486 368.668 37.8639C366.129 37.6331 363.051 37.5561 359.895 37.5561Z" fill="var(--color-primary)"/>
<path d="M361.049 55.7162C364.363 55.7162 367.051 53.0291 367.051 49.7144C367.051 46.3996 364.363 43.7124 361.049 43.7124C357.734 43.7124 355.047 46.3996 355.047 49.7144C355.047 53.0291 357.734 55.7162 361.049 55.7162Z" fill="var(--color-secondary)"/>
<path d="M315.263 188.45C316.75 188.45 317.956 187.244 317.956 185.757C317.956 184.27 316.75 183.064 315.263 183.064C313.775 183.064 312.569 184.27 312.569 185.757C312.569 187.244 313.775 188.45 315.263 188.45Z" fill="var(--color-primary)"/>
<path d="M315.265 193.529C310.956 193.529 307.493 190.067 307.493 185.758C307.493 181.448 310.956 177.986 315.265 177.986C319.574 177.986 323.037 181.448 323.037 185.758C323.037 190.067 319.574 193.529 315.265 193.529ZM315.265 178.832C311.418 178.832 308.263 181.988 308.263 185.834C308.263 189.682 311.418 192.837 315.265 192.837C319.113 192.837 322.267 189.682 322.267 185.834C322.267 181.988 319.113 178.832 315.265 178.832Z" fill="var(--color-primary)"/>
<path d="M352.739 47.7903H341.351C341.12 47.7903 340.966 47.6364 340.966 47.4055C340.966 47.1747 341.12 47.0208 341.351 47.0208H352.739C352.97 47.0208 353.123 47.1747 353.123 47.4055C353.123 47.6364 352.97 47.7903 352.739 47.7903Z" fill="var(--color-primary)"/>
<path d="M352.739 51.0985H341.351C341.12 51.0985 340.966 50.9446 340.966 50.7139C340.966 50.483 341.12 50.3291 341.351 50.3291H352.739C352.97 50.3291 353.123 50.483 353.123 50.7139C353.123 50.9446 352.97 51.0985 352.739 51.0985Z" fill="var(--color-primary)"/>
<path d="M293.642 83.4937H253.014V37.9409H293.642V83.4937ZM253.783 82.7243H292.872V38.7104H253.783V82.7243Z" fill="var(--color-primary)"/>
<path d="M298.797 36.0938H247.781V42.9421H298.797V36.0938Z" fill="var(--color-primary)"/>
<path d="M251.014 40.4791C251.567 40.4791 252.015 40.0313 252.015 39.4788C252.015 38.9263 251.567 38.4785 251.014 38.4785C250.462 38.4785 250.015 38.9263 250.015 39.4788C250.015 40.0313 250.462 40.4791 251.014 40.4791Z" fill="#AFE3E2"/>
<path d="M255.707 40.4791C256.259 40.4791 256.707 40.0313 256.707 39.4788C256.707 38.9263 256.259 38.4785 255.707 38.4785C255.155 38.4785 254.706 38.9263 254.706 39.4788C254.706 40.0313 255.155 40.4791 255.707 40.4791Z" fill="#F6A7AB"/>
<g opacity="0.9">
<path opacity="0.9" d="M299.413 61.332H262.786C261.863 61.332 261.094 60.5626 261.094 59.6392V50.3286C261.094 49.4052 261.863 48.6357 262.786 48.6357H299.413C300.337 48.6357 301.106 49.4052 301.106 50.3286V59.6392C301.106 60.5626 300.337 61.332 299.413 61.332Z" fill="var(--color-text-2)"/>
</g>
<g opacity="0.9">
<path opacity="0.9" d="M299.413 77.4915H262.786C261.863 77.4915 261.094 76.722 261.094 75.7987V66.488C261.094 65.5646 261.863 64.7952 262.786 64.7952H299.413C300.337 64.7952 301.106 65.5646 301.106 66.488V75.7987C301.106 76.722 300.337 77.4915 299.413 77.4915Z" fill="var(--color-secondary)"/>
</g>
<path d="M235.548 133.278C232.623 133.278 230.316 132.201 229.315 131.585C226.853 130.201 225.006 127.969 223.929 125.891C222.928 125.815 221.928 125.66 221.159 125.43C215.464 123.814 212.771 117.428 211.925 114.811L212.694 114.58C213.54 117.119 216.003 123.275 221.389 124.737C221.928 124.891 222.697 125.045 223.544 125.122C223.159 124.352 222.928 123.583 222.774 122.891C222.467 121.505 222.621 120.428 223.159 119.735C223.929 118.736 225.545 118.351 226.622 118.889C227.314 119.274 227.853 120.044 228.161 121.044C228.468 122.352 228.237 123.66 227.545 124.506C226.853 125.353 225.852 125.738 224.698 125.815C225.775 127.739 227.468 129.662 229.623 130.816C230.854 131.509 234.24 133.124 238.241 132.047C242.396 130.893 245.705 127.43 246.782 122.813L247.551 122.967C246.397 127.815 242.934 131.585 238.472 132.74C237.471 133.124 236.471 133.278 235.548 133.278ZM225.468 119.428C224.852 119.428 224.16 119.659 223.775 120.197C223.39 120.736 223.313 121.659 223.544 122.737C223.698 123.506 224.006 124.276 224.391 125.122C225.39 125.122 226.391 124.891 227.007 124.121C227.545 123.429 227.699 122.352 227.468 121.274C227.314 120.505 226.853 119.89 226.391 119.582C226.083 119.505 225.775 119.428 225.468 119.428Z" fill="var(--color-primary)"/>
<path d="M306.414 102.346L305.953 101.731C310.724 98.268 318.495 92.1892 321.727 86.9565C320.342 86.7255 319.034 86.1097 318.342 84.9555C317.649 83.6475 317.726 81.4935 319.111 80.3392C320.419 79.185 322.574 79.1077 323.574 80.1082C324.728 81.2625 324.036 83.4937 323.651 84.648C323.497 85.1865 323.266 85.8022 322.959 86.3407C324.189 86.418 325.344 86.3407 326.113 86.3407C333.039 85.956 341.503 81.9547 345.273 77.2612C346.812 75.414 347.427 73.4906 347.197 71.8747C346.966 70.2588 345.735 68.7199 343.657 67.3348L344.119 66.7192C346.428 68.2582 347.736 69.9511 348.043 71.7978C348.351 73.6445 347.582 75.7222 345.966 77.7997C341.964 82.7242 333.5 86.8027 326.19 87.1875C325.344 87.264 323.958 87.3412 322.574 87.1875C319.265 92.4967 311.262 98.8065 306.414 102.346ZM321.573 80.1082C320.881 80.1082 320.112 80.3392 319.572 80.8005C318.495 81.7237 318.418 83.4172 319.034 84.4942C319.572 85.4947 320.804 85.956 322.112 86.187C322.419 85.5712 322.728 84.9555 322.881 84.3405C323.189 83.34 323.805 81.4162 322.959 80.5695C322.65 80.262 322.112 80.1082 321.573 80.1082Z" fill="var(--color-primary)"/>
<path d="M346.43 119.659C344.891 119.659 343.429 119.351 342.121 118.735C340.736 118.12 339.35 117.043 338.196 115.888C334.426 117.812 328.501 118.889 324.346 119.428L324.269 118.658C330.271 117.812 334.811 116.658 337.658 115.273C336.042 113.349 335.119 111.194 335.811 109.656C336.427 108.271 338.427 107.424 339.812 107.886C341.351 108.502 341.967 110.733 341.813 112.041C341.659 113.349 340.582 114.503 338.889 115.426C339.89 116.504 341.12 117.427 342.428 117.966C346.814 119.966 352.817 118.273 358.049 113.657L358.588 114.196C354.663 117.812 350.277 119.659 346.43 119.659ZM338.889 108.578C337.966 108.578 336.812 109.194 336.503 110.04C335.965 111.194 336.812 113.195 338.351 114.965C339.966 114.042 340.889 113.041 340.967 112.041C341.12 110.964 340.582 109.117 339.428 108.732C339.35 108.655 339.12 108.578 338.889 108.578Z" fill="var(--color-primary)"/>
<path d="M205.459 58.7938L204.921 58.2552C208.537 54.6386 212.615 51.7916 217.156 49.637C219.694 48.4828 222.388 47.4825 225.081 46.8669L225.235 47.6364C222.541 48.252 219.925 49.1754 217.463 50.4065C213 52.4841 208.999 55.2542 205.459 58.7938Z" fill="var(--color-primary)"/>
<path d="M204.228 64.4877L203.689 63.949C207.306 60.3324 211.384 57.4854 215.924 55.3308C218.464 54.1767 221.156 53.1763 223.849 52.5608L224.004 53.3302C221.311 53.9458 218.694 54.8692 216.232 56.1003C211.769 58.101 207.768 60.948 204.228 64.4877Z" fill="var(--color-primary)"/>
<g opacity="0.4">
<path opacity="0.4" d="M341.967 420.447C341.351 420.447 340.889 420.14 340.889 419.678L338.889 269.015H345.121L343.121 419.678C343.121 420.14 342.582 420.447 341.967 420.447Z" fill="var(--color-primary)"/>
</g>
<g opacity="0.4">
<path opacity="0.4" d="M297.259 420.447C296.644 420.447 296.182 420.14 296.182 419.678L294.181 269.015H300.414L298.413 419.678C298.336 420.14 297.874 420.447 297.259 420.447Z" fill="var(--color-primary)"/>
</g>
<path d="M322.037 210.457L262.557 240.313L262.249 239.697C261.402 238.004 262.095 235.927 263.787 235.08L317.112 208.303C318.805 207.456 320.883 208.148 321.729 209.841L322.037 210.457Z" fill="var(--color-primary)"/>
<path d="M262.633 240.313L267.635 245.391L327.115 215.459L322.037 210.457L313.957 212.227L264.557 237.466L262.633 240.313Z" fill="var(--color-primary)"/>
<path d="M321.731 211.149L349.048 136.279C346.893 135.51 344.584 136.587 343.815 138.742L319.269 205.917C318.499 208.071 319.654 210.379 321.731 211.149Z" fill="var(--color-primary)"/>
<path d="M349.047 136.28L357.973 137.434L325.885 215.305L321.73 211.15L322.576 202.916L346.507 138.588L349.047 136.28Z" fill="var(--color-primary)"/>
<path fill-rule="evenodd" clip-rule="evenodd" d="M317.111 208.302C317.744 207.985 318.429 207.884 319.084 207.969C318.971 207.306 319.021 206.603 319.266 205.917L343.812 138.742C344.582 136.587 346.89 135.51 349.045 136.279H349.044H349.045L357.971 137.434L326.194 214.552L327.114 215.458L267.634 245.39L262.632 240.312L262.671 240.254L262.556 240.312L262.248 239.696C261.401 238.003 262.094 235.926 263.787 235.079L317.111 208.302Z" fill="white" fill-opacity="0.57"/>
<path d="M336.579 260.089H269.25C265.479 260.089 262.324 257.011 262.324 253.163C262.324 249.316 265.402 246.238 269.25 246.238C269.712 246.238 270.019 246.546 270.019 247.007C270.019 247.469 269.712 247.777 269.25 247.777C266.325 247.777 263.863 250.163 263.863 253.163C263.863 256.088 266.249 258.55 269.25 258.55H336.579C337.041 258.55 337.348 258.857 337.348 259.319C337.348 259.781 336.963 260.089 336.579 260.089Z" fill="var(--color-secondary)"/>
<path d="M237.856 259.781H235.316V253.087L237.856 252.471V259.781Z" fill="var(--color-secondary)"/>
<path d="M339.657 420.832C338.811 420.832 338.196 420.37 338.196 419.677L336.118 268.63H343.197L341.12 419.677C341.196 420.37 340.504 420.832 339.657 420.832ZM336.964 269.476L338.965 419.677C338.965 419.832 339.273 420.062 339.657 420.062C340.042 420.062 340.35 419.832 340.35 419.677L342.351 269.476H336.964Z" fill="var(--color-primary)"/>
<path d="M294.949 420.832C294.102 420.832 293.487 420.37 293.487 419.677L291.409 268.63H298.488L296.411 419.677C296.411 420.37 295.719 420.832 294.949 420.832ZM292.179 269.476L294.18 419.677C294.18 419.832 294.487 420.062 294.872 420.062C295.257 420.062 295.565 419.832 295.565 419.677L297.565 269.476H292.179Z" fill="var(--color-primary)"/>
<path d="M349.507 270.322H189.687C187.763 270.322 186.301 268.783 186.301 266.937V265.628C186.301 263.705 187.84 262.243 189.687 262.243H349.43C351.354 262.243 352.816 263.782 352.816 265.628V266.937C352.893 268.861 351.354 270.322 349.507 270.322Z" fill="var(--color-primary)"/>
<path d="M327.112 215.458L267.631 245.314L267.324 244.698C266.478 243.005 267.17 240.928 268.863 240.081L322.188 213.304C323.881 212.457 325.958 213.149 326.804 214.842L327.112 215.458Z" fill="var(--color-primary)"/>
<path d="M327.116 215.459L358.587 137.742C356.51 136.896 354.124 137.896 353.278 139.973L324.884 210.15C324.038 212.305 325.038 214.612 327.116 215.459Z" fill="var(--color-primary)"/>
<path d="M244.552 260.165H241.166V252.162L244.552 251.239V260.165ZM242.012 259.396H243.859V252.239L242.012 252.701V259.396Z" fill="var(--color-primary)"/>
<path d="M302.568 259.704H299.721L293.643 234.773L297.028 233.003L302.568 259.704ZM300.337 258.934H301.645L296.49 234.157L294.566 235.158L300.337 258.934Z" fill="var(--color-secondary)"/>
<path d="M330.731 215.382L268.173 245.93C267.404 246.315 266.48 246.161 265.942 245.546L257.477 236.466C256.862 235.928 256.016 236.697 256.477 237.313L264.403 248.701C264.941 249.47 266.018 249.778 266.865 249.317L331.732 217.229C332.117 217.076 332.348 216.691 332.348 216.306C332.27 215.537 331.424 215.075 330.731 215.382Z" fill="var(--color-secondary)"/>
<path d="M283.637 227.233C283.406 226.848 283.329 226.463 284.175 225.925C284.945 225.463 285.329 225.694 285.56 226.078" fill="var(--color-primary)"/>
<path d="M269.862 233.08L278.942 228.233L282.789 231.541L273.325 236.543L269.862 233.08Z" fill="var(--color-primary)"/>
<path d="M284.637 228.232C284.406 227.848 284.329 227.463 285.175 226.924C285.945 226.463 286.329 226.693 286.56 227.078" fill="var(--color-primary)"/>
<path d="M285.638 229.157C285.407 228.772 285.33 228.387 286.176 227.849C286.946 227.387 287.331 227.618 287.561 228.002" fill="var(--color-primary)"/>
<path d="M286.637 230.157C286.406 229.772 286.329 229.388 287.175 228.849C287.945 228.387 288.33 228.618 288.56 229.003" fill="var(--color-primary)"/>
<path d="M287.793 225.154C287.562 224.769 287.485 224.384 288.332 223.846C289.101 223.384 289.486 223.615 289.716 223.999" fill="var(--color-primary)"/>
<path d="M288.793 226.154C288.562 225.769 288.485 225.385 289.331 224.846C290.101 224.384 290.486 224.615 290.717 225" fill="var(--color-primary)"/>
<path d="M289.792 227.077C289.561 226.693 289.484 226.308 290.331 225.769C291.1 225.308 291.485 225.538 291.716 225.923" fill="var(--color-primary)"/>
<path d="M290.791 228.077C290.56 227.692 290.484 227.308 291.33 226.769C292.099 226.308 292.484 226.538 292.715 226.923" fill="var(--color-primary)"/>
<path d="M292.023 223.076C291.792 222.691 291.716 222.307 292.562 221.768C293.331 221.307 293.716 221.537 293.947 221.922" fill="var(--color-primary)"/>
<path d="M293.025 224.077C292.794 223.692 292.718 223.307 293.564 222.769C294.333 222.307 294.718 222.538 294.949 222.922" fill="var(--color-primary)"/>
<path d="M293.948 225.001C293.718 224.616 293.64 224.231 294.487 223.693C295.256 223.231 295.641 223.462 295.872 223.847" fill="var(--color-primary)"/>
<path d="M294.947 226C294.716 225.616 294.64 225.231 295.486 224.692C296.255 224.23 296.64 224.461 296.871 224.846" fill="var(--color-primary)"/>
<path d="M296.18 221C295.949 220.616 295.872 220.231 296.718 219.692C297.488 219.23 297.873 219.461 298.104 219.846" fill="var(--color-primary)"/>
<path d="M297.182 222C296.951 221.615 296.874 221.23 297.72 220.692C298.49 220.23 298.875 220.461 299.106 220.846" fill="var(--color-primary)"/>
<path d="M298.181 222.924C297.95 222.539 297.873 222.154 298.719 221.616C299.489 221.154 299.874 221.385 300.105 221.77" fill="var(--color-primary)"/>
<path d="M299.178 223.924C298.947 223.539 298.87 223.154 299.716 222.616C300.486 222.154 300.87 222.385 301.101 222.769" fill="var(--color-primary)"/>
<path d="M300.332 218.922C300.101 218.537 300.024 218.153 300.871 217.614C301.64 217.152 302.025 217.383 302.255 217.768" fill="var(--color-primary)"/>
<path d="M301.335 219.922C301.104 219.537 301.027 219.152 301.874 218.614C302.643 218.152 303.028 218.383 303.259 218.767" fill="var(--color-primary)"/>
<path d="M302.335 220.846C302.104 220.461 302.027 220.076 302.873 219.538C303.643 219.076 304.028 219.307 304.259 219.692" fill="var(--color-primary)"/>
<path d="M303.331 221.846C303.1 221.462 303.023 221.077 303.87 220.538C304.639 220.076 305.024 220.307 305.255 220.692" fill="var(--color-primary)"/>
<path d="M304.566 216.845C304.335 216.46 304.259 216.075 305.105 215.537C305.874 215.075 306.259 215.306 306.49 215.69" fill="var(--color-primary)"/>
<path d="M305.489 217.845C305.258 217.46 305.182 217.076 306.028 216.537C306.797 216.075 307.182 216.306 307.413 216.691" fill="var(--color-primary)"/>
<path d="M306.49 218.768C306.259 218.383 306.182 217.999 307.029 217.46C307.798 216.998 308.183 217.229 308.414 217.614" fill="var(--color-primary)"/>
<path d="M307.492 219.769C307.261 219.384 307.185 218.999 308.031 218.461C308.8 217.999 309.185 218.23 309.416 218.614" fill="var(--color-primary)"/>
<path d="M248.551 252.086L196.611 260.165L196.381 258.473C196.073 256.625 197.381 254.856 199.228 254.548L244.396 247.546C246.243 247.238 248.013 248.546 248.321 250.393L248.551 252.086Z" fill="var(--color-primary)"/>
<path d="M171.14 347.27L87.883 335.189C85.729 335.189 83.959 333.573 83.959 331.649V314.336C83.959 309.257 88.4987 305.102 94.1162 305.102H168.524C179.528 305.102 188.377 313.181 188.377 323.108V331.649C188.3 333.573 173.295 347.27 171.14 347.27Z" fill="var(--color-text-2)"/>
<path d="M98.1185 178.754L113.431 320.723L77.4965 323.493L74.4189 211.072L62.7998 186.68L84.653 175.369L98.1185 178.754Z" fill="var(--color-text-2)"/>
<path d="M42.4082 151.361C42.4082 151.361 66.4158 137.357 77.1117 140.819C87.8074 144.282 92.4244 147.668 94.8867 158.287L98.1184 178.755L70.8788 188.066L45.1014 156.825L42.4082 151.361Z" fill="var(--color-secondary)"/>
<path d="M71.8785 323.338C74.8026 297.1 73.4944 270.706 68.185 244.929C62.5679 217.766 52.4877 191.374 38.0985 166.904C34.482 160.748 38.0985 152.823 45.1777 151.591C45.2547 151.591 45.3316 151.591 45.4086 151.515C49.7176 150.745 53.9497 152.823 56.1042 156.593C70.8782 183.14 80.6503 212.149 85.0363 242.005C88.8073 267.706 88.6528 294.175 84.4213 320.338C83.2671 327.571 71.109 330.187 71.8785 323.338Z" fill="var(--color-text-2)"/>
<path d="M70.8794 188.065L53.1814 196.76C48.8724 186.526 43.8708 176.523 38.1766 166.827C34.5601 160.672 38.1766 152.746 45.2558 151.515C45.3328 151.515 45.4097 151.515 45.4867 151.515C49.7188 150.745 54.0279 152.823 56.1824 156.593C61.7996 166.75 66.7243 177.215 70.8794 188.065Z" fill="var(--color-secondary)"/>
<path d="M171.448 347.27H74.1861C72.1854 347.27 70.6465 345.654 70.6465 343.73V326.417C70.6465 321.338 74.8016 317.183 79.8799 317.183H156.981C166.908 317.183 174.987 325.263 174.987 335.189V343.73C175.065 345.654 173.448 347.27 171.448 347.27Z" fill="var(--color-text-2)"/>
<path opacity="0.4" d="M84.9111 317.183H156.983C166.909 317.183 174.989 325.263 174.989 335.189V343.73C175.066 345.654 173.45 347.269 171.449 347.269H74.1876C72.1869 347.269 70.6479 345.654 70.6479 343.73V326.416C70.6479 324.613 71.1725 322.924 72.0767 321.498C74.7392 295.866 73.3703 270.104 68.185 244.929C62.5679 217.766 52.4877 191.374 38.0985 166.904C34.482 160.748 38.0985 152.823 45.1777 151.591C45.2547 151.591 45.3316 151.591 45.4086 151.515C49.7176 150.745 53.9497 152.823 56.1042 156.593C70.8782 183.14 80.6503 212.149 85.0363 242.005C88.6558 266.673 88.6588 292.05 84.9111 317.183Z" fill="white"/>
<path d="M82.7962 422.909C82.6424 422.909 82.4887 422.756 82.4114 422.602C82.3349 422.371 82.4887 422.217 82.7197 422.14C88.9522 420.986 93.9539 418.292 97.2629 414.368C98.7247 412.676 101.11 409.29 100.879 407.597C99.2632 408.982 97.4932 410.136 96.6472 409.52C96.3389 409.367 96.1852 408.982 96.1087 408.521C96.0314 407.828 96.1852 407.058 96.5699 406.597C97.0319 405.981 97.9552 405.673 98.9557 405.673C99.8017 405.673 100.571 405.981 101.033 406.366C101.649 405.827 102.264 405.212 102.88 404.519C105.496 401.749 112.421 394.439 110.036 386.59C109.189 383.743 107.266 381.204 105.034 379.434C104.496 379.896 103.957 380.281 103.264 380.588C100.571 381.896 97.0319 381.743 95.2619 380.973C94.6462 380.665 94.3387 380.357 94.2614 379.973C94.1849 379.665 94.2614 379.28 94.4924 378.896C95.1082 377.895 96.8009 376.895 98.2627 376.587C100.34 376.125 102.803 376.972 104.957 378.511C108.882 374.663 108.958 366.968 108.958 365.968C108.882 356.735 102.495 350.194 99.7252 347.809C99.5714 347.654 99.5707 347.424 99.6479 347.27C99.7252 347.116 100.033 347.116 100.186 347.193C103.033 349.655 109.651 356.35 109.651 365.968C109.651 367.584 109.497 375.048 105.496 378.972C107.804 380.819 109.805 383.513 110.651 386.436C113.114 394.747 105.958 402.211 103.264 405.058C102.726 405.673 102.034 406.366 101.341 406.982C102.264 409.136 98.8019 413.445 97.7242 414.753C94.4159 418.908 89.1832 421.679 82.7962 422.909ZM98.8019 406.52C98.0324 406.52 97.4167 406.751 97.1084 407.135C96.8782 407.443 96.7237 407.981 96.8009 408.443C96.8009 408.674 96.9547 408.828 97.0319 408.905C97.4932 409.213 98.8019 408.366 100.495 406.982C100.11 406.673 99.5714 406.52 98.9557 406.52C98.8019 406.52 98.8019 406.52 98.8019 406.52ZM99.4942 377.357C99.1094 377.357 98.8019 377.357 98.4172 377.433C96.9547 377.741 95.5694 378.665 95.1082 379.434C94.9544 379.588 94.9544 379.819 94.9544 379.896C94.9544 380.05 95.1847 380.204 95.5694 380.435C96.9547 381.127 100.34 381.358 102.957 380.126C103.495 379.896 103.957 379.588 104.419 379.203C102.803 377.972 101.033 377.357 99.4942 377.357Z" fill="var(--color-primary)"/>
<path d="M161.183 422.909C161.106 422.909 161.106 422.909 161.183 422.909C154.719 421.679 149.564 418.908 146.178 414.907C145.023 413.599 141.638 409.29 142.561 407.135C141.869 406.443 141.177 405.75 140.637 405.212C137.944 402.365 130.788 394.824 133.251 386.591C134.097 383.666 136.098 380.973 138.406 379.127C134.482 375.125 134.251 367.738 134.251 366.122C134.328 356.581 140.868 349.809 143.715 347.347C143.869 347.193 144.1 347.193 144.254 347.424C144.408 347.655 144.408 347.809 144.177 347.963C141.407 350.348 135.021 356.888 134.943 366.122C134.943 367.123 135.021 374.817 138.945 378.665C141.099 377.126 143.562 376.356 145.639 376.741C147.178 377.049 148.794 378.049 149.409 379.049C149.64 379.434 149.718 379.819 149.64 380.127C149.564 380.512 149.179 380.897 148.64 381.127C146.871 381.974 143.254 382.051 140.637 380.742C140.022 380.435 139.407 380.05 138.868 379.588C136.636 381.358 134.712 383.897 133.866 386.744C131.558 394.593 138.406 401.903 141.022 404.673C141.638 405.365 142.254 405.981 142.869 406.52C143.331 406.058 144.1 405.827 144.947 405.827C145.947 405.827 146.871 406.135 147.332 406.751C147.717 407.289 147.87 407.982 147.794 408.674C147.717 409.136 147.486 409.444 147.255 409.675C146.332 410.291 144.639 409.136 143.023 407.751C142.715 409.367 145.178 412.753 146.64 414.522C149.949 418.37 154.95 421.063 161.183 422.294C161.414 422.371 161.49 422.525 161.49 422.756C161.49 422.833 161.337 422.909 161.183 422.909ZM143.562 406.982C145.254 408.443 146.562 409.213 147.024 408.905C147.102 408.828 147.178 408.674 147.255 408.443C147.332 407.982 147.178 407.443 146.947 407.135C146.64 406.751 145.947 406.443 145.178 406.52C144.485 406.52 143.869 406.674 143.562 406.982ZM139.56 379.127C140.022 379.511 140.484 379.819 141.022 380.05C143.639 381.281 146.947 381.05 148.41 380.357C148.794 380.204 149.025 379.973 149.025 379.819C149.025 379.742 149.025 379.511 148.871 379.358C148.41 378.665 147.024 377.664 145.563 377.357C143.639 377.049 141.484 377.741 139.56 379.127Z" fill="var(--color-primary)"/>
<path d="M73.0326 333.881C72.9557 333.881 72.8017 333.881 72.7248 333.804C72.5709 333.65 72.5709 333.419 72.7248 333.266L82.9588 323.032C83.1126 322.877 83.3436 322.877 83.4974 323.032C83.6511 323.186 83.6511 323.417 83.4974 323.57L73.2635 333.804C73.2635 333.881 73.1096 333.881 73.0326 333.881Z" fill="var(--color-primary)"/>
<path d="M145.211 349.501C145.133 349.501 144.98 349.501 144.902 349.424C144.749 349.27 144.749 349.039 144.902 348.886L155.137 338.652C155.291 338.498 155.522 338.498 155.675 338.652C155.829 338.806 155.829 339.037 155.675 339.19L145.441 349.348C145.364 349.424 145.287 349.501 145.211 349.501Z" fill="var(--color-primary)"/>
<path d="M138.437 349.501C138.361 349.501 138.207 349.501 138.13 349.424C137.976 349.27 137.976 349.039 138.13 348.886L148.364 338.652C148.517 338.498 148.748 338.498 148.902 338.652C149.057 338.806 149.057 339.037 148.902 339.19L138.668 349.424C138.668 349.424 138.591 349.501 138.437 349.501Z" fill="var(--color-primary)"/>
<path d="M125.047 349.501C124.97 349.501 124.816 349.501 124.74 349.424C124.585 349.27 124.585 349.039 124.74 348.886L134.974 338.652C135.127 338.498 135.358 338.498 135.512 338.652C135.666 338.806 135.666 339.037 135.512 339.19L125.278 349.424C125.201 349.424 125.125 349.501 125.047 349.501Z" fill="var(--color-primary)"/>
<path d="M118.279 349.501C118.202 349.501 118.048 349.501 117.971 349.424C117.817 349.27 117.817 349.039 117.971 348.886L128.205 338.652C128.359 338.498 128.59 338.498 128.744 338.652C128.897 338.806 128.897 339.037 128.744 339.19L118.51 349.424C118.51 349.424 118.355 349.501 118.279 349.501Z" fill="var(--color-primary)"/>
<path d="M111.582 349.501C111.505 349.501 111.351 349.501 111.274 349.424C111.12 349.27 111.12 349.039 111.274 348.886L121.508 338.652C121.662 338.498 121.893 338.498 122.047 338.652C122.2 338.806 122.2 339.037 122.047 339.19L111.812 349.424C111.736 349.424 111.658 349.501 111.582 349.501Z" fill="var(--color-primary)"/>
<path d="M104.888 349.501C104.811 349.501 104.657 349.501 104.58 349.424C104.426 349.27 104.426 349.039 104.58 348.886L114.814 338.652C114.968 338.498 115.199 338.498 115.353 338.652C115.507 338.806 115.507 339.037 115.353 339.19L105.119 349.424C105.042 349.424 104.965 349.501 104.888 349.501Z" fill="var(--color-primary)"/>
<path d="M98.1162 349.501C98.0397 349.501 97.8852 349.501 97.8087 349.424C97.6549 349.27 97.6549 349.039 97.8087 348.886L108.042 338.652C108.196 338.498 108.427 338.498 108.581 338.652C108.735 338.806 108.735 339.037 108.581 339.19L98.3472 349.424C98.3472 349.424 98.1934 349.501 98.1162 349.501Z" fill="var(--color-primary)"/>
<path d="M91.4224 349.501C91.3452 349.501 91.1914 349.501 91.1149 349.424C90.9604 349.27 90.9604 349.039 91.1149 348.886L101.349 338.652C101.502 338.498 101.733 338.498 101.887 338.652C102.041 338.806 102.041 339.037 101.887 339.19L91.6534 349.424C91.5762 349.424 91.4997 349.501 91.4224 349.501Z" fill="var(--color-primary)"/>
<path d="M84.6501 349.501C84.5729 349.501 84.4191 349.501 84.3419 349.424C84.1881 349.27 84.1881 349.039 84.3419 348.886L94.5764 338.652C94.7301 338.498 94.9611 338.498 95.1149 338.652C95.2686 338.806 95.2686 339.037 95.1149 339.19L84.8811 349.424C84.8811 349.424 84.8039 349.501 84.6501 349.501Z" fill="var(--color-primary)"/>
<path d="M77.9568 349.501C77.8795 349.501 77.7258 349.501 77.6485 349.424C77.4948 349.27 77.4948 349.039 77.6485 348.886L87.883 338.652C88.0368 338.498 88.2678 338.498 88.4215 338.652C88.5753 338.806 88.5753 339.037 88.4215 339.19L78.1878 349.424C78.1878 349.424 78.0333 349.501 77.9568 349.501Z" fill="var(--color-primary)"/>
<path d="M74.1087 337.652C74.0317 337.652 73.8779 337.652 73.801 337.574C73.6471 337.421 73.6471 337.19 73.801 337.036L84.0351 326.802C84.1888 326.648 84.4198 326.648 84.5736 326.802C84.7273 326.956 84.7273 327.187 84.5736 327.341L74.3395 337.574C74.2626 337.652 74.1856 337.652 74.1087 337.652Z" fill="var(--color-primary)"/>
<path d="M73.0326 343.885C72.9557 343.885 72.8017 343.885 72.7248 343.807C72.5709 343.654 72.5709 343.423 72.7248 343.269L82.9588 333.035C83.1126 332.881 83.3436 332.881 83.4974 333.035C83.6511 333.189 83.6511 333.419 83.4974 333.574L73.2635 343.807C73.2635 343.807 73.1096 343.885 73.0326 343.885Z" fill="var(--color-primary)"/>
<path d="M74.1087 347.655C74.0317 347.655 73.8779 347.655 73.801 347.578C73.6471 347.424 73.6471 347.193 73.801 347.039L84.0351 336.805C84.1888 336.652 84.4198 336.652 84.5736 336.805C84.7273 336.959 84.7273 337.19 84.5736 337.344L74.3395 347.578C74.2626 347.578 74.1856 347.655 74.1087 347.655Z" fill="var(--color-primary)"/>
<path d="M131.853 349.367C131.777 349.367 131.622 349.367 131.546 349.291C131.392 349.136 131.392 348.906 131.546 348.751L141.78 338.518C141.933 338.364 142.164 338.364 142.318 338.518C142.473 338.671 142.473 338.902 142.318 339.056L132.084 349.291C132.007 349.291 131.931 349.367 131.853 349.367Z" fill="var(--color-primary)"/>
<path d="M50.0283 198.685C49.8745 198.685 49.7206 198.608 49.7206 198.454C49.6437 198.3 49.7206 198.069 49.8744 197.915L73.4974 186.373C73.6513 186.296 73.8822 186.373 74.0361 186.527C74.113 186.681 74.0361 186.911 73.8822 187.066L50.2592 198.608C50.1053 198.608 50.1053 198.685 50.0283 198.685Z" fill="var(--color-primary)"/>
<path d="M64.9531 174.368C64.7993 174.368 64.6454 174.292 64.5685 174.138C61.8753 168.213 58.8743 162.365 55.7194 156.671C53.7188 153.054 49.5637 151.054 45.4084 151.823C45.3315 151.823 45.2546 151.823 45.1777 151.9C41.9458 152.438 39.3296 154.516 37.9445 157.44C36.5595 160.441 36.7134 163.75 38.4062 166.597C38.4832 166.751 38.4832 166.982 38.2523 167.135C38.0984 167.213 37.8676 167.213 37.7137 166.982C35.9439 163.904 35.713 160.287 37.252 157.133C38.714 153.901 41.5611 151.746 45.1007 151.13C45.1777 151.13 45.2546 151.13 45.3316 151.13C49.7945 150.361 54.2575 152.516 56.412 156.363C59.5669 162.057 62.5678 167.905 65.2609 173.83C65.3379 174.061 65.2609 174.215 65.107 174.368C65.107 174.368 65.0301 174.368 64.9531 174.368Z" fill="var(--color-primary)"/>
<path d="M228.62 182.756C228.62 182.756 244.855 171.06 249.703 168.367C254.627 165.751 267.093 164.75 276.096 167.521C277.789 168.059 271.094 171.907 269.324 172.137C269.324 172.137 297.334 171.214 297.103 174.292C296.949 177.37 291.87 179.293 284.56 180.294C277.25 181.294 259.322 183.91 250.088 182.756C244.701 187.681 232.621 201.531 232.621 201.531L223.31 188.45L228.62 182.756Z" fill="#F8BCBF"/>
<path d="M176.988 241.928C176.988 241.928 197.994 231.925 204.996 233.849C207.921 234.618 212.615 235.619 216.846 238.466C222.695 242.39 223.541 247.7 221.002 249.008C219.001 250.008 209.152 247.238 209.152 247.238C209.152 247.238 204.92 249.315 201.457 252.086C198.841 254.163 185.452 255.24 185.452 255.24C171.678 241.851 176.988 241.928 176.988 241.928Z" fill="#F8BCBF"/>
<path d="M196.457 223.385C194.148 223.385 191.84 223 189.608 222.23L136.13 204.148C128.896 201.762 138.207 197.684 140.592 190.451C142.978 183.218 129.127 168.983 136.36 171.368L195.148 194.991L229.005 175.908C235.161 171.445 251.474 193.683 245.318 198.146L208.691 219.23C205.151 221.999 200.843 223.385 196.457 223.385Z" fill="var(--color-primary)"/>
<path d="M165.603 110.117C166.757 109.424 174.759 102.653 173.836 100.19C173.22 98.4975 169.527 99.1133 168.912 97.1895C168.45 95.8043 170.143 94.3425 171.22 92.7263C174.529 88.11 172.528 77.106 168.065 75.798C151.445 70.9503 139.133 91.572 139.133 91.572C140.672 88.5713 140.672 85.5705 139.133 84.1088C137.133 82.185 133.054 83.8778 132.516 84.1088C125.283 87.1095 123.897 96.882 121.435 96.4973C119.896 96.189 120.357 92.496 118.05 91.572C115.971 90.726 112.432 92.4188 111.432 94.9583C109.893 98.8823 115.125 103.037 113.74 105.192C113.048 106.269 110.739 106.808 104.352 104.961C101.044 118.735 107.199 131.739 108.969 136.587C110.431 140.819 112.509 146.59 117.049 147.437C120.357 148.052 124.743 145.974 125.975 142.742C127.745 138.203 122.127 134.586 122.589 126.968C122.743 123.659 124.436 123.429 125.359 121.89C135.901 121.043 158.293 114.734 165.603 110.117Z" fill="var(--color-primary)"/>
<path d="M116.97 174.907C116.97 174.907 125.203 148.052 125.511 138.28C125.511 138.28 114.354 141.742 115.353 134.817C116.354 127.815 125.511 129.508 125.511 129.508C125.126 126.121 125.895 122.813 127.819 119.581C127.819 119.581 144.055 118.888 163.061 111.348L166.986 139.51L162.369 140.434C162.369 140.434 158.675 159.44 156.675 160.132C154.674 160.825 142.67 161.056 142.67 161.056L141.669 190.296C141.593 190.296 120.509 186.295 116.97 174.907Z" fill="#F8BCBF"/>
<path d="M119.203 163.904C114.433 169.983 66.8022 202.84 95.0421 282.942H157.293C157.293 282.942 161.524 225.847 159.678 216.074C158.524 209.764 158.447 184.064 158.216 182.525C157.908 180.448 143.98 174.83 142.134 176.985L141.749 184.218C128.976 179.216 119.896 163.135 119.203 163.904Z" fill="var(--color-primary)"/>
<path d="M132.055 277.556C131.747 277.556 131.439 277.556 131.131 277.556C127.361 277.403 120.436 275.633 116.973 265.475C116.281 263.321 115.511 260.474 114.742 256.857C113.587 251.394 112.202 243.854 110.74 234.466C108.278 218.768 106.354 203.379 106.277 202.763C105.354 195.222 110.663 188.297 118.204 187.373C125.745 186.45 132.67 191.759 133.594 199.301C135.595 215.306 138.98 238.313 141.135 250.086C150.599 245.777 165.296 241.468 177.146 235.543C183.994 232.157 196.229 256.857 189.381 260.243C144.136 282.789 135.748 277.556 132.055 277.556Z" fill="var(--color-primary)"/>
<path d="M132.055 277.556C131.747 277.556 131.439 277.556 131.131 277.556C127.361 277.403 120.436 275.633 116.973 265.475C116.281 263.321 115.511 260.474 114.742 256.857C113.587 251.394 112.202 243.854 110.74 234.466C108.278 218.768 106.354 203.379 106.277 202.763C105.354 195.222 110.663 188.297 118.204 187.373C125.745 186.45 132.67 191.759 133.594 199.301C135.595 215.306 138.98 238.313 141.135 250.086C150.599 245.777 165.296 241.468 177.146 235.543C183.994 232.157 196.229 256.857 189.381 260.243C144.136 282.789 135.748 277.556 132.055 277.556Z" fill="black" fill-opacity="0.28"/>
<path d="M141.132 256.241C140.901 256.241 140.748 256.01 140.748 255.779C141.517 249.778 133.437 199.685 130.59 192.683C129.282 189.451 123.126 189.22 118.202 189.527C112.739 189.912 107.583 191.144 107.506 191.144C107.275 191.22 107.121 191.066 107.044 190.835C106.968 190.605 107.121 190.451 107.352 190.374C108.198 190.143 128.513 185.45 131.36 192.374C133.976 198.838 142.44 248.854 141.517 255.857C141.517 256.164 141.286 256.241 141.132 256.241Z" fill="#060606"/>
<path d="M136.363 253.625C136.209 253.625 136.132 253.547 136.055 253.471C135.978 253.317 135.978 253.086 136.209 252.932C136.286 252.855 147.905 245.93 171.451 237.235C171.682 237.158 171.836 237.235 171.913 237.466C171.99 237.696 171.913 237.851 171.682 237.927C148.213 246.623 136.747 253.547 136.594 253.625C136.517 253.547 136.44 253.625 136.363 253.625Z" fill="#060606"/>
<path d="M130.822 279.479C123.204 279.479 116.663 267.86 111.431 245.007C107.506 227.848 105.736 210.38 105.736 210.15C105.736 209.919 105.891 209.765 106.045 209.765C106.276 209.765 106.429 209.919 106.429 210.073C106.506 210.765 113.355 279.479 130.975 278.71C152.598 277.71 185.608 259.088 185.993 258.857C186.147 258.781 186.378 258.781 186.532 259.012C186.685 259.242 186.609 259.396 186.378 259.55C186.07 259.704 152.829 278.479 131.053 279.479C131.053 279.479 130.899 279.479 130.822 279.479Z" fill="#060606"/>
<path d="M152.753 222.692L151.983 221C151.445 219.845 150.598 217.999 149.828 217.922C149.444 217.922 149.059 218.384 148.598 219.23L148.136 220.23L147.905 219.153C147.52 217.383 147.597 215.613 147.597 213.92C147.597 213.458 147.597 212.997 147.597 212.535C147.597 212.304 147.751 212.15 147.982 212.15C148.213 212.15 148.367 212.304 148.367 212.535C148.367 212.997 148.367 213.458 148.367 213.92C148.367 215.306 148.367 216.69 148.52 217.999C148.982 217.46 149.367 217.152 149.906 217.229C150.906 217.229 151.676 218.46 152.291 219.692C152.445 218.922 152.753 218.384 153.137 218.075C153.83 217.537 154.753 217.844 155.6 218.075C156.754 218.46 157.446 218.614 157.908 217.768C157.985 217.614 158.216 217.537 158.447 217.614C158.6 217.691 158.678 217.922 158.6 218.153C157.831 219.614 156.446 219.153 155.369 218.845C154.676 218.614 153.984 218.384 153.522 218.691C153.137 218.999 152.906 219.768 152.83 221.076L152.753 222.692Z" fill="var(--color-text-2)"/>
<path d="M102.965 253.702C102.812 253.702 102.581 253.548 102.581 253.394C102.35 252.009 101.426 250.547 100.58 249.239C100.195 248.624 99.8109 248.084 99.5027 247.546C99.4262 247.392 99.5027 247.161 99.6564 247.007C99.8109 246.93 100.041 247.007 100.195 247.161C100.503 247.7 100.811 248.239 101.195 248.777C102.119 250.162 103.119 251.701 103.35 253.24C103.427 253.471 103.273 253.702 102.965 253.702C103.043 253.702 103.043 253.702 102.965 253.702Z" fill="var(--color-secondary)"/>
<path d="M107.739 251.317C107.585 251.317 107.354 251.163 107.354 251.008C107.123 248.931 105.969 246.853 104.122 245.007C103.968 244.853 103.968 244.622 104.122 244.468C104.276 244.314 104.507 244.314 104.661 244.468C106.584 246.392 107.815 248.7 108.123 250.932C108.2 251.086 108.046 251.317 107.739 251.317C107.815 251.317 107.815 251.317 107.739 251.317Z" fill="var(--color-secondary)"/>
<path d="M155.834 147.591C155.834 147.591 153.91 153.67 149.909 153.362C147.062 153.131 146.37 148.283 146.216 148.13L155.834 147.591Z" fill="white"/>
<path d="M147.906 134.278C148.757 134.278 149.445 133.59 149.445 132.74C149.445 131.89 148.757 131.201 147.906 131.201C147.056 131.201 146.367 131.89 146.367 132.74C146.367 133.59 147.056 134.278 147.906 134.278Z" fill="#464646"/>
<path d="M164.066 130.123C164.916 130.123 165.605 129.435 165.605 128.584C165.605 127.735 164.916 127.046 164.066 127.046C163.217 127.046 162.527 127.735 162.527 128.584C162.527 129.435 163.217 130.123 164.066 130.123Z" fill="#464646"/>
<path d="M142.21 130.893C141.979 130.893 141.748 130.817 141.594 130.586C141.287 130.277 141.363 129.739 141.672 129.508L149.597 122.813C149.904 122.506 150.444 122.583 150.674 122.891C150.982 123.198 150.905 123.737 150.597 123.968L142.671 130.662C142.595 130.817 142.441 130.893 142.21 130.893Z" fill="#464646"/>
<path d="M169.911 127.046C169.835 127.046 169.758 127.046 169.68 127.046L161.139 124.584C160.755 124.43 160.524 124.045 160.601 123.66C160.755 123.275 161.139 123.045 161.524 123.122L170.065 125.584C170.45 125.738 170.681 126.123 170.604 126.507C170.527 126.815 170.22 127.046 169.911 127.046Z" fill="#464646"/>
<path d="M140.748 127.507C140.363 127.507 139.979 127.2 139.979 126.815C139.979 126.353 140.287 126.046 140.672 125.968L149.366 125.43C149.751 125.43 150.136 125.738 150.213 126.123C150.213 126.584 149.905 126.892 149.52 126.969L140.748 127.507C140.825 127.507 140.825 127.507 140.748 127.507Z" fill="#464646"/>
<path d="M157.14 142.205C156.986 142.205 156.833 142.051 156.755 141.896C156.678 141.666 156.833 141.512 157.063 141.435L165.605 139.665C165.835 139.588 165.989 139.742 166.066 139.973C166.143 140.204 165.989 140.357 165.758 140.435L157.217 142.205C157.14 142.205 157.14 142.205 157.14 142.205Z" fill="#464646"/>
<path d="M120.744 135.664C120.667 135.664 120.59 135.664 120.513 135.587C120.359 135.433 120.283 135.202 120.436 135.048C120.513 134.971 121.667 133.433 124.36 133.971C124.591 134.048 124.669 134.202 124.669 134.432C124.591 134.663 124.438 134.741 124.207 134.741C122.052 134.279 121.129 135.433 121.129 135.51C120.975 135.664 120.821 135.664 120.744 135.664Z" fill="#464646"/>
<path d="M123.437 136.972C123.206 136.972 123.053 136.741 123.053 136.51C123.129 135.664 121.514 134.125 120.436 133.356C120.282 133.201 120.206 132.971 120.359 132.817C120.513 132.663 120.744 132.586 120.898 132.74C121.205 132.971 123.976 135.049 123.822 136.588C123.822 136.818 123.668 136.972 123.437 136.972Z" fill="#464646"/>
<path d="M133.899 116.735L130.899 132.432C130.899 132.432 123.819 129.585 120.741 129.354C115.74 125.969 125.358 114.426 125.358 114.426L133.899 116.735Z" fill="var(--color-primary)"/>
<path d="M157.445 102.731L156.753 102.423C157.291 101.269 158.446 100.653 159.446 100.114C159.754 99.9607 160.138 99.7297 160.446 99.576C164.524 96.8827 169.834 93.1125 174.297 88.3417C177.529 84.9562 180.298 81.3397 179.299 75.1837C179.144 74.3372 178.759 73.8755 177.99 73.6447C174.451 72.6444 165.371 78.108 162.832 81.0315L162.216 80.5702C164.909 77.415 174.143 71.7979 178.144 72.9522C179.221 73.26 179.837 74.0294 180.068 75.1065C181.145 81.57 178.221 85.341 174.913 88.8802C170.372 93.7282 165.063 97.4985 160.908 100.268C160.6 100.499 160.216 100.653 159.907 100.884C158.907 101.269 157.907 101.807 157.445 102.731Z" fill="var(--color-secondary)"/>
<path d="M220.079 240.466C220.079 240.466 220.003 240.466 220.079 240.466C219.31 240.236 218.156 239.851 216.77 239.389C213.847 238.312 209.768 236.85 207.845 236.85C207.691 236.85 207.537 236.696 207.537 236.542C207.537 236.389 207.691 236.234 207.845 236.234C209.922 236.234 213.847 237.619 217.001 238.774C218.309 239.236 219.464 239.697 220.157 239.851C220.31 239.928 220.387 240.082 220.387 240.236C220.31 240.39 220.233 240.466 220.079 240.466Z" fill="var(--color-primary)"/>
<path d="M223.466 245.622C223.389 245.622 223.389 245.622 223.466 245.622C222.696 245.392 221.696 245.007 220.542 244.545C217.848 243.468 214.078 241.929 211.231 241.929C211.077 241.929 210.923 241.775 210.923 241.621C210.923 241.467 211.077 241.313 211.231 241.313C214.232 241.313 218.002 242.852 220.773 243.929C221.927 244.391 222.85 244.776 223.542 244.93C223.697 245.007 223.773 245.161 223.773 245.314C223.697 245.545 223.542 245.622 223.466 245.622Z" fill="var(--color-primary)"/>
<path d="M162.293 284.48C162.293 284.48 229.853 280.171 233.469 288.481C237.086 296.792 237.108 378.602 237.108 378.602L217.546 384.127L209.616 301.948L162.293 284.48Z" fill="var(--color-secondary)"/>
<path d="M162.293 284.48C162.293 284.48 229.853 280.171 233.469 288.481C237.086 296.792 237.108 378.602 237.108 378.602L217.546 384.127L209.616 301.948L162.293 284.48Z" fill="white" fill-opacity="0.43"/>
<path d="M237.085 377.971C237.085 377.971 237.085 381.203 237.085 382.511C237.085 385.513 237.085 387.205 237.085 387.205L217.156 385.258L216.771 377.74L237.085 377.971Z" fill="#F9C5C8"/>
<path d="M237.087 384.05V396.516L258.862 405.98C260.71 406.75 260.094 409.443 258.17 409.443L218.619 409.213L217.157 384.205L237.087 384.05Z" fill="#F2F1F8"/>
<path d="M267.326 418.6H204.845C203.537 418.6 202.536 417.6 202.536 416.291C202.536 414.983 203.537 413.983 204.845 413.983H267.326C268.634 413.983 269.635 414.983 269.635 416.291C269.635 417.6 268.557 418.6 267.326 418.6Z" fill="var(--color-primary)"/>
<path d="M228.622 414.753L242.241 397.748C242.241 397.748 261.248 404.981 267.018 409.444C269.943 411.752 268.173 416.446 264.48 416.292L228.622 414.753Z" fill="var(--color-primary)"/>
<path fill-rule="evenodd" clip-rule="evenodd" d="M268.096 414.107C269.007 414.413 269.635 415.256 269.635 416.292C269.635 417.6 268.557 418.6 267.326 418.6H204.845C203.537 418.6 202.536 417.6 202.536 416.292C202.536 414.983 203.537 413.984 204.845 413.984H229.237L242.24 397.748C242.24 397.748 261.246 404.981 267.017 409.444C268.588 410.684 268.804 412.611 268.096 414.107Z" fill="white" fill-opacity="0.19"/>
<path d="M95.042 282.941V298.869C95.042 308.103 102.583 315.644 111.817 315.644H183.609C187.456 315.644 190.534 318.722 190.534 322.569V414.291C190.534 416.83 192.535 418.831 195.074 418.831H246.013C247.937 418.831 255.247 416.369 253.708 415.214L217.773 396.285L216.081 306.026C215.927 296.022 208.232 287.789 198.306 286.865L157.293 283.018H95.042V282.941Z" fill="var(--color-secondary)"/>
<path d="M217.774 384.05H190.535V388.514H217.774V384.05Z" fill="#F8B8BB"/>
<path d="M190.535 388.514V414.292C190.535 416.83 192.535 418.831 195.075 418.831H246.014C247.938 418.831 255.248 416.369 253.709 415.215L217.774 396.286V388.514H190.535Z" fill="white"/>
<path d="M217.774 384.436H190.534C190.304 384.436 190.149 384.281 190.149 384.051C190.149 383.82 190.304 383.666 190.534 383.666H217.774C218.005 383.666 218.159 383.82 218.159 384.051C218.159 384.281 218.005 384.436 217.774 384.436Z" fill="var(--color-primary)"/>
<path d="M217.774 389.284H190.534C190.304 389.284 190.149 389.129 190.149 388.899C190.149 388.668 190.304 388.514 190.534 388.514H217.774C218.005 388.514 218.159 388.668 218.159 388.899C218.159 389.129 218.005 389.284 217.774 389.284Z" fill="var(--color-primary)"/>
<path d="M237.164 378.203H217.773C217.542 378.203 217.389 378.049 217.389 377.818C217.389 377.587 217.542 377.433 217.773 377.433H237.087C237.318 377.433 237.471 377.587 237.471 377.818C237.471 378.049 237.318 378.203 237.164 378.203Z" fill="var(--color-primary)"/>
<path d="M237.164 384.436H217.773C217.542 384.436 217.389 384.281 217.389 384.051C217.389 383.82 217.542 383.666 217.773 383.666H237.087C237.318 383.666 237.471 383.82 237.471 384.051C237.471 384.281 237.318 384.436 237.164 384.436Z" fill="var(--color-primary)"/>
<path d="M253.94 422.755H191.458C190.15 422.755 189.149 421.755 189.149 420.446C189.149 419.138 190.15 418.138 191.458 418.138H253.94C255.248 418.138 256.248 419.138 256.248 420.446C256.248 421.755 255.171 422.755 253.94 422.755Z" fill="var(--color-primary)"/>
<path d="M215.312 418.907L228.932 401.902C228.932 401.902 247.938 409.135 253.709 413.598C256.633 415.907 254.863 420.6 251.17 420.446L215.312 418.907Z" fill="var(--color-primary)"/>
<path d="M124.205 302.409C123.743 302.409 123.282 302.332 122.82 302.255C119.511 301.562 119.666 297.484 119.742 294.483C119.742 294.022 119.742 293.56 119.742 293.175C119.742 292.944 119.896 292.79 120.127 292.79C120.358 292.79 120.512 292.944 120.512 293.175C120.512 293.56 120.512 294.022 120.512 294.483C120.435 297.33 120.358 300.947 122.974 301.485C124.59 301.87 126.206 301.485 127.745 300.408C131.746 297.715 134.054 291.636 134.208 290.559C134.208 290.328 134.439 290.174 134.67 290.251C134.901 290.251 135.055 290.482 134.978 290.713C134.67 292.328 132.131 298.408 128.207 301.1C126.899 302.024 125.591 302.409 124.205 302.409Z" fill="var(--color-primary)"/>
<path d="M202.305 368.969C202.074 368.969 201.921 368.816 201.921 368.585V314.49C201.921 308.565 197.15 303.794 191.225 303.794L133.13 302.102C132.899 302.102 132.745 301.948 132.745 301.717C132.745 301.487 132.975 301.332 133.13 301.332L191.225 303.025C197.535 303.025 202.69 308.18 202.69 314.49V368.585C202.69 368.738 202.536 368.969 202.305 368.969Z" fill="var(--color-primary)"/>
<path d="M196.766 402.133C196.612 402.133 196.458 402.056 196.381 401.902C196.305 401.671 196.381 401.518 196.612 401.441C197.228 401.21 198.459 400.825 199.459 401.133C199.69 401.21 199.767 401.441 199.69 401.595C199.614 401.826 199.383 401.902 199.229 401.826C198.69 401.671 197.844 401.749 196.92 402.133C196.843 402.133 196.766 402.133 196.766 402.133Z" fill="var(--color-primary)"/>
<path d="M197.766 404.98C197.613 404.98 197.459 404.903 197.382 404.75C197.305 404.596 197.382 404.365 197.535 404.211L197.766 404.134C198.382 403.826 198.844 403.595 199.614 403.672C199.844 403.672 199.998 403.826 199.998 404.057C199.998 404.288 199.767 404.442 199.614 404.442C198.998 404.442 198.613 404.596 198.075 404.827L197.844 404.903C197.92 404.98 197.844 404.98 197.766 404.98Z" fill="var(--color-primary)"/>
<path d="M213.924 397.593C213.769 397.593 213.615 397.516 213.539 397.362C213.462 397.131 213.539 396.977 213.769 396.823C213.924 396.746 214.077 396.67 214.231 396.592C214.539 396.439 214.847 396.285 215.308 396.131C215.616 396.054 215.924 396.054 216.232 396.054C216.693 396.054 217.078 396.054 217.386 395.823C217.54 395.669 217.77 395.746 217.925 395.9C218.079 396.054 218.001 396.285 217.848 396.439C217.309 396.823 216.693 396.823 216.232 396.823C216.001 396.823 215.693 396.823 215.463 396.901C215.154 396.977 214.923 397.131 214.616 397.285C214.462 397.362 214.308 397.439 214.077 397.516C214 397.593 213.924 397.593 213.924 397.593Z" fill="var(--color-primary)"/>
<path d="M230.241 395.515C230.086 395.515 229.932 395.438 229.932 395.284C229.856 395.131 229.932 394.9 230.086 394.746C230.241 394.669 230.394 394.592 230.548 394.439C230.933 394.13 231.394 393.823 231.933 393.9C232.164 393.976 232.241 394.13 232.241 394.361C232.164 394.592 232.01 394.669 231.779 394.669C231.625 394.592 231.318 394.823 231.01 395.053C230.856 395.208 230.625 395.362 230.471 395.438C230.394 395.515 230.317 395.515 230.241 395.515Z" fill="var(--color-primary)"/>
<path d="M230.698 397.209C230.622 397.209 230.544 397.209 230.468 397.132C230.313 396.978 230.237 396.747 230.391 396.593C230.698 396.131 231.391 395.593 231.93 395.362C232.161 395.285 232.314 395.439 232.392 395.593C232.468 395.824 232.314 395.977 232.161 396.055C231.776 396.208 231.237 396.67 231.006 396.978C231.006 397.132 230.853 397.209 230.698 397.209Z" fill="var(--color-primary)"/>
<path d="M159.137 211.688C159.137 211.688 158.522 198.607 155.982 194.99C155.982 194.99 168.678 212.689 168.678 214.766L159.137 211.688Z" fill="black" fill-opacity="0.81"/>
<path d="M260.785 207.149C260.478 207.149 260.17 207.071 259.862 206.994C258.169 206.456 257.092 204.224 257.169 202.454C257.169 200.3 258.784 198.761 259.554 198.068C261.862 195.914 265.402 194.375 269.095 194.067C269.404 189.758 269.404 183.064 269.48 175.676C269.557 161.903 269.635 146.36 271.327 139.203L272.097 139.358C270.404 146.36 270.327 161.903 270.25 175.676C270.173 182.987 270.173 189.604 269.865 193.99C272.097 193.913 274.328 194.375 276.406 195.452C276.637 195.606 276.944 195.76 277.175 195.914C278.407 193.682 280.099 192.143 280.869 191.374C288.409 184.295 301.26 185.295 305.03 185.757L304.954 186.527C301.26 186.065 288.718 185.141 281.484 191.912C280.714 192.605 279.099 194.144 277.945 196.298C280.33 197.915 282.331 200.377 282.946 202.378C283.177 203.224 283.177 203.916 282.869 204.378C282.562 204.917 281.869 205.379 280.945 205.61C279.637 205.84 278.252 205.61 277.406 204.917C275.867 203.762 275.944 201.685 275.944 200.684C275.944 199.145 276.328 197.837 276.944 196.607C276.713 196.453 276.406 196.298 276.175 196.145C274.251 195.144 272.097 194.683 269.942 194.759C269.788 196.529 269.635 197.837 269.326 198.607C267.787 202.839 263.863 207.149 260.785 207.149ZM269.019 194.837C265.556 195.068 262.247 196.529 260.093 198.607C259.324 199.3 257.938 200.608 257.938 202.454C257.938 203.916 258.784 205.84 260.093 206.225C262.555 206.994 266.941 202.916 268.48 198.376C268.711 197.761 268.942 196.529 269.019 194.837ZM277.483 197.145C276.944 198.222 276.637 199.454 276.637 200.839C276.637 201.685 276.637 203.531 277.791 204.455C278.483 204.994 279.637 205.225 280.714 204.994C281.407 204.84 281.869 204.532 282.1 204.147C282.253 203.84 282.253 203.301 282.1 202.685C281.638 201.146 279.868 198.761 277.483 197.145Z" fill="var(--color-primary)"/>
<path d="M272.635 150.823C266.401 150.823 261.4 145.744 261.4 139.588C261.4 133.432 266.479 128.354 272.635 128.354C278.791 128.354 283.869 133.432 283.869 139.588C283.869 145.744 278.791 150.823 272.635 150.823ZM272.635 129.046C266.863 129.046 262.17 133.74 262.17 139.511C262.17 145.282 266.863 149.976 272.635 149.976C278.406 149.976 283.099 145.282 283.099 139.511C283.099 133.74 278.406 129.046 272.635 129.046Z" fill="var(--color-primary)"/>
<path d="M271.635 140.666C272.57 140.666 273.329 139.908 273.329 138.973C273.329 138.038 272.57 137.28 271.635 137.28C270.701 137.28 269.942 138.038 269.942 138.973C269.942 139.908 270.701 140.666 271.635 140.666Z" fill="var(--color-primary)"/>
<path d="M404.761 95.4337C405.359 91.9147 403.907 88.7332 401.519 88.3275C399.131 87.9217 396.71 90.4462 396.113 93.966C395.515 97.485 396.966 100.666 399.355 101.072C401.743 101.478 404.163 98.9535 404.761 95.4337Z" fill="var(--color-text-2)"/>
<path d="M364.743 114.965C364.512 114.965 364.435 114.888 364.435 114.812C363.358 113.58 374.13 93.0354 374.208 92.8044C375.362 91.3426 376.977 90.2649 378.747 89.8036L402.832 83.4166C405.371 82.7244 408.064 83.2629 410.142 84.8791C412.22 86.4946 413.451 88.8804 413.451 91.5736V97.3441C413.451 101.961 409.834 105.655 405.217 105.731L381.287 106.347C368.59 113.811 365.512 114.965 364.743 114.965ZM404.91 83.9559C404.294 83.9559 403.602 84.0324 402.909 84.1861L378.825 90.5731C377.208 91.0344 375.747 91.9584 374.746 93.2664C373.592 94.7281 365.512 111.58 364.974 114.196C366.59 113.811 374.13 109.656 380.748 105.655L380.825 105.578H380.902L404.986 104.962C409.142 104.885 412.45 101.5 412.45 97.3441V91.5736C412.45 89.1879 411.373 86.9566 409.449 85.4941C408.219 84.4944 406.602 83.9559 404.91 83.9559Z" fill="var(--color-primary)"/>
<path d="M391.056 93.8821L381.284 95.3446C380.745 95.4211 380.284 95.0364 380.284 94.4979C380.284 94.0366 380.592 93.7284 381.054 93.6519L390.825 92.1894C391.365 92.1129 391.826 92.4976 391.826 93.0361C391.749 93.4209 391.441 93.8056 391.056 93.8821Z" fill="var(--color-primary)"/>
<path d="M391.056 98.9602L381.284 100.422C380.745 100.499 380.284 100.114 380.284 99.5759C380.284 99.1139 380.592 98.8064 381.054 98.7292L390.825 97.2674C391.365 97.1902 391.826 97.5749 391.826 98.1134C391.749 98.4982 391.441 98.8829 391.056 98.9602Z" fill="var(--color-primary)"/>
</svg>
